<svg xmlns="http://www.w3.org/2000/svg" viewBox="0 0 515.15 370.52"><defs><style>.cls-1{fill:#ffffff;}.cls-2{fill:#ffffff;}</style></defs><g id="Camada_2" data-name="Camada 2"><g id="Layer_1" data-name="Layer 1"><path class="cls-1" d="M381.74,234.1q-2.24-2.23-4.26-4.61a107.08,107.08,0,1,1,32.14-123.9,78.89,78.89,0,0,1,40-3.9q-2-6.34-4.63-12.51A146.11,146.11,0,0,0,193.5,58.54a76.54,76.54,0,0,0-21.25-20.42C153.91,26,129.79,19.28,104.34,19.28S54.78,26,36.43,38.12A75.52,75.52,0,0,0,14,60.28,55.12,55.12,0,0,0,5.17,89.79,55.13,55.13,0,0,0,14,119.31a74.51,74.51,0,0,0,20.73,21l-1.19.77A80.75,80.75,0,0,0,9.73,164.72a58.68,58.68,0,0,0,0,64.72,80.75,80.75,0,0,0,23.84,23.62c19.19,12.71,44.32,19.71,70.77,19.71s51.59-7,70.77-19.71a84.11,84.11,0,0,0,19.7-17.82,149,149,0,0,0,12.37,14,145.9,145.9,0,0,0,203.29,3.11A77.83,77.83,0,0,1,381.74,234.1ZM57.92,70.57c12-8,28.53-12.38,46.42-12.38s34.38,4.4,46.42,12.38C155.93,74,164.6,81,164.6,89.79S155.93,105.6,150.76,109c-12,8-28.53,12.37-46.42,12.37S70,117,57.92,109c-5.17-3.42-13.83-10.47-13.83-19.23S52.75,74,57.92,70.57Zm46.42,163.28c-38.56,0-65.43-19.38-65.43-36.77s26.87-36.77,65.43-36.77,65.43,19.38,65.43,36.77S142.9,233.85,104.34,233.85Z"/><path class="cls-2" d="M492.26,123.57a78.16,78.16,0,0,0-133.42,55.26,78.46,78.46,0,0,0,1.45,15.06H277.14c5.57-21.61,27.41-33.44,53.05-45.26,8.18-3.77,15.25-7,20.36-10.74,10.77-7.22,16.7-17.81,16.7-29.83s-6-22.76-16.92-30S326.4,67.13,311.8,67.13c-15.16,0-29.87,4-40.37,10.94-11.7,7.76-18.14,18.4-18.14,30h22.48c0-5.13,5.06-9.24,8.08-11.24,6.81-4.51,17.26-7.21,27.95-7.21,10.11,0,18.89,2.43,26.11,7.21,6.15,4.07,6.86,8.36,6.86,11.24s-.71,7.17-6.86,11.24l-.45.31c-3.29,2.42-9.8,5.42-16.68,8.6-13,6-29.15,13.44-42.46,24.88-16.61,14.27-25,31.78-25,52v11.24H368.42a78.46,78.46,0,0,0,13.32,17.73A78.15,78.15,0,0,0,492.26,123.57ZM437,233.42a54.59,54.59,0,1,1,54.59-54.59A54.65,54.65,0,0,1,437,233.42Z"/><path class="cls-2" d="M35.21,331h11.1l9,17.13L64.1,331H75.36v38.83h-8V342.4h-.11L58.6,360.07H52l-8.59-17.4h-.11v27.19H35.21Z"/><path class="cls-2" d="M94.38,369.86,112,331.08h8.6L138,369.86h-8.27l-3.81-8.59H106.24l-4.08,8.59Zm22-31.49-6.53,15h12.89l-6.31-15Z"/><path class="cls-2" d="M178.57,355.51l10.88,14.41H179l-9.79-14H165v14h-8.59V331h17.51c9.79,0,13.55,6.14,13.55,12.45,0,5.28-2.78,10.61-9.25,12ZM165,337.66v11.7h6.64c4.08,0,7.45-.93,7.45-5.88s-3.37-5.82-7.45-5.82Z"/><path class="cls-2" d="M244.31,369.86H232.56L222.45,359l-5.06,7v3.86h-8.71V331h8.71v22l15.17-22h10.61l-14.63,22Z"/><path class="cls-2" d="M270.94,354.36v8.27h20.23v7.18h-28.5V330.87H291v7.18H270.94v8.75h17.73v7.56Z"/><path class="cls-2" d="M323,338.21H310.68v-7.13h33.13v7.18H331.57v31.6H323Z"/><path class="cls-2" d="M363.1,331h8.54v38.83H363.1Z"/><path class="cls-2" d="M400.17,343.05v26.87h-7.45v-39h9.79l17.35,24.26V330.92h7.24v39h-7.24Z"/><path class="cls-2" d="M482.67,360.07a20.09,20.09,0,1,1-17.62-29.75,20.36,20.36,0,0,1,17.56,10.23c-3.42,1.74-3.69,1.9-7.5,3.8a11.45,11.45,0,0,0-10.06-5.71,11.75,11.75,0,0,0,0,23.5c4.35,0,8.7-2.17,10.28-5.87h-.87c-1.74,0-5.72.05-7.89.05a6.86,6.86,0,0,1-1.52-.05v-7.18c5.49,0,13.16.05,19.85.05C484.9,350.28,484.68,357.46,482.67,360.07Z"/></g></g></svg>